<?xml version="1.0" encoding="utf-8"?>
<!-- Generator: Adobe Illustrator 19.1.0, SVG Export Plug-In . SVG Version: 6.00 Build 0)  -->
<svg version="1.1" id="Layer_1" xmlns="http://www.w3.org/2000/svg" xmlns:xlink="http://www.w3.org/1999/xlink" x="0px" y="0px"
	 viewBox="-94 93 90 90" style="enable-background:new -94 93 90 90;" xml:space="preserve">
<style type="text/css">
	.st0{fill:#010202;}
</style>
<g>
	<path class="st0" d="M-49,93c-24.9,0-45,20.1-45,45s20.1,45,45,45s45-20.1,45-45S-24.1,93-49,93z M-49,175.5
		c-20.7,0-37.5-16.8-37.5-37.5s16.8-37.5,37.5-37.5s37.5,16.8,37.5,37.5S-28.3,175.5-49,175.5z"/>
	<polygon class="st0" points="-36.6,122.1 -49,134.5 -61.4,122.1 -64.9,125.6 -52.5,138 -64.9,150.4 -61.4,153.9 -49,141.5 
		-36.6,153.9 -33.1,150.4 -45.5,138 -33.1,125.6 	"/>
</g>
</svg>
