<?xml version="1.0" encoding="utf-8"?>
<!-- Generator: Adobe Illustrator 19.1.0, SVG Export Plug-In . SVG Version: 6.00 Build 0)  -->
<svg version="1.1" id="Layer_1" xmlns="http://www.w3.org/2000/svg" xmlns:xlink="http://www.w3.org/1999/xlink" x="0px" y="0px"
	 viewBox="-102.8 95.7 88 88.1" style="enable-background:new -102.8 95.7 88 88.1;" xml:space="preserve">
<path d="M-18.2,156.7L-18.2,156.7c2.2-5.2,3.4-11,3.4-17c0-5.8-1.1-11.4-3.2-16.5l-0.2-0.6l0,0c-2.3-5.4-5.6-10.2-9.7-14.3l0,0l0,0
	c-4-3.9-8.6-7-13.8-9.2l-0.5-0.2l0,0c-4.8-2-10.1-3.1-15.6-3.2l0,0l0,0c-0.3,0-0.5,0-0.8,0c-5.9,0-11.5,1.2-16.7,3.3l0,0l-0.5,0.2
	c-10.4,4.4-18.7,12.6-23.2,22.8l0,0l-0.3,0.5c-2.2,5.2-3.5,11-3.5,17l0,0l0,0c0,0.1,0,0.1,0,0.2c0,6,1.2,11.7,3.4,17l0,0l0.4,0.9
	l0,0c2.3,5.1,5.4,9.6,9.3,13.5l0,0l0,0c3.8,3.8,8.4,6.9,13.4,9.1l0.5,0.2l0,0c5.2,2.2,10.9,3.4,17,3.4c0.1,0,0.3,0,0.4,0l0,0l0,0
	c5.9-0.1,11.4-1.3,16.5-3.4l0,0l0.6-0.3c5.3-2.3,10-5.6,13.9-9.6l0,0l0,0c3.7-3.8,6.7-8.2,8.8-13.2L-18.2,156.7z M-19.1,156.2
	l-8.6-4.4l11.9-11.1C-15.9,146.2-17.1,151.4-19.1,156.2z M-45.9,169.4l5-11.9l11.8-4.9l0.8,16.9h-17.6V169.4z M-69.4,169.3l10.2-4.2
	l12,4.9l-11.1,12.2L-69.4,169.3z M-58,97.2l10.6,11.5l-12,5l-10.2-4.2L-58,97.2z M-46.3,108.3L-46.3,108.3L-46.3,108.3L-46.3,108.3z
	 M-28.5,151.2l-4.9-11.8l4.9-11.9l12.3,12.2L-28.5,151.2z M-46.8,169.1l-11.1-4.6l15.7-6.5L-46.8,169.1z M-59.2,164l-15-6.2
	l-7.6-18.4l7.6-18.4l15-6.2l17.5,7.3l7.2,17.4l-7.2,17.4L-59.2,164z M-69.9,168.4l-3.9-9.3l13.3,5.4L-69.9,168.4z M-75.6,157.2
	l-11.7-4.8l4.8-11.7L-75.6,157.2z M-87.6,125.4l-0.8-16.1l17.6,0.7l-4.2,10.2L-87.6,125.4z M-60.6,114.2l-13.2,5.5l3.9-9.3
	L-60.6,114.2z M-75.6,121.5l-6.9,16.6l-4.9-11.7L-75.6,121.5z M-46.9,109.6l4.6,11.1l-15.7-6.5L-46.9,109.6z M-40.4,122.5l11,4.5
	l-4.5,11L-40.4,122.5z M-34,140.6l4.6,11l-11,4.6L-34,140.6z M-28.1,126.5L-28.1,126.5L-28.1,126.5L-28.1,126.5z M-29.1,126.1
	l-11.9-4.9l-5-11.9h16.9V126.1z M-70.4,109L-70.4,109L-70.4,109L-70.4,109z M-88.1,108.3c3.6-3.3,7.7-6.1,12.2-8l4.9,8.7
	L-88.1,108.3z M-88.6,125.8L-88.6,125.8L-88.6,125.8L-88.6,125.8z M-88.2,126.8l5.2,12.6l-5.2,12.6l-13.1-12.5L-88.2,126.8z
	 M-87.6,153.3l12.6,5.2l4.2,10.2l-17.8,1.2L-87.6,153.3z M-27.7,126.9l8.9-3c1.8,4.6,2.9,9.6,3,14.8L-27.7,126.9z M-19.2,122.9
	l-8.9,3l0.1-16.1C-24.3,113.6-21.3,118-19.2,122.9z M-45.8,108.3l3.9-8.1c4.6,2,8.7,4.7,12.3,8.1H-45.8z M-42.8,99.8l-3.9,8
	l-10.3-11C-52,97-47.2,98.1-42.8,99.8z M-58.9,96.7l-11.2,11.9l-4.9-8.7C-70,97.9-64.6,96.8-58.9,96.7z M-89.4,109.6l0.8,15.7
	l-9.4-3C-96,117.6-93,113.3-89.4,109.6z M-98.5,123.2l9.5,3l-12.7,12.3C-101.6,133.1-100.4,128-98.5,123.2z M-101.7,140.5l12.7,12
	l-9.5,3.8C-100.5,151.4-101.7,146.1-101.7,140.5z M-98,157.2l9.4-3.7l-1,16.2C-93.1,166.1-96,161.9-98,157.2z M-71,169.7l-5.2,9.3
	c-4.5-2-8.6-4.7-12.1-8.1L-71,169.7z M-75.2,179.4l5.2-9.3l10.8,12.6C-64.9,182.6-70.3,181.5-75.2,179.4z M-57.4,182.7l10.8-11.9
	l4.4,8.6C-47,181.4-52.1,182.5-57.4,182.7z M-41.4,179l-4.4-8.6h17C-32.4,174-36.6,176.9-41.4,179z M-28.1,152.7l8.6,4.4
	c-2,4.4-4.6,8.4-7.8,11.9L-28.1,152.7z"/>
</svg>
