<?xml version="1.0" standalone="no"?>
<!DOCTYPE svg PUBLIC "-//W3C//DTD SVG 20010904//EN"
 "http://www.w3.org/TR/2001/REC-SVG-20010904/DTD/svg10.dtd">
<svg version="1.0" xmlns="http://www.w3.org/2000/svg"
 width="700.000000pt" height="700.000000pt" viewBox="0 0 700.000000 700.000000"
 preserveAspectRatio="xMidYMid meet">
<metadata>
Created by potrace 1.11, written by Peter Selinger 2001-2013
</metadata>
<g transform="translate(0.000000,700.000000) scale(0.100000,-0.100000)"
fill="#000000" stroke="none">
<path d="M3309 6996 c-2 -2 -40 -6 -84 -10 -423 -32 -893 -164 -1283 -360
-541 -271 -1018 -691 -1339 -1176 -41 -63 -84 -127 -94 -142 -11 -15 -19 -30
-19 -34 0 -3 -9 -18 -19 -33 -25 -35 -194 -371 -222 -442 -53 -133 -132 -382
-145 -453 -3 -16 -7 -32 -9 -36 -6 -10 -53 -252 -61 -315 -3 -27 -8 -59 -10
-69 -19 -101 -26 -585 -11 -736 8 -73 25 -200 31 -237 2 -10 7 -38 11 -63 19
-126 92 -404 143 -550 91 -257 263 -594 420 -820 248 -358 531 -644 871 -883
64 -45 128 -89 142 -97 13 -8 60 -36 104 -62 120 -73 364 -191 510 -247 185
-71 453 -147 584 -167 20 -3 54 -9 76 -14 22 -5 67 -12 100 -15 33 -4 69 -9
79 -11 133 -25 682 -24 815 1 15 3 47 7 161 21 25 4 48 8 52 10 4 3 26 7 50
10 54 7 288 67 388 98 453 144 890 391 1249 705 337 295 635 683 820 1066 24
50 67 140 97 200 133 278 241 699 272 1070 14 173 7 589 -13 720 -3 17 -7 46
-9 65 -9 74 -28 179 -52 284 -102 454 -285 865 -560 1256 -41 59 -82 115 -92
126 -9 10 -27 32 -40 48 -79 103 -297 331 -417 436 -210 185 -514 386 -775
512 -159 76 -202 94 -384 159 -207 74 -520 146 -716 165 -36 3 -76 8 -90 11
-29 5 -525 14 -531 9z m133 -129 c-28 -28 -69 -72 -92 -97 -51 -54 -267 -284
-330 -350 -65 -68 -277 -293 -352 -374 l-65 -69 -32 54 c-159 269 -358 635
-348 640 59 32 511 164 627 183 19 3 46 8 59 11 22 4 117 18 213 30 18 2 69 7
113 11 44 3 81 7 82 8 1 0 40 2 88 3 l87 3 -50 -53z m430 28 c13 -2 46 -6 73
-10 28 -3 66 -9 85 -11 19 -3 69 -11 110 -20 41 -8 84 -16 96 -18 11 -2 41 -9
65 -16 24 -6 62 -16 84 -22 52 -12 385 -120 385 -123 0 -4 -129 -271 -228
-473 l-79 -162 -125 132 c-69 73 -142 151 -162 173 -55 59 -135 143 -286 304
-167 178 -148 157 -200 215 l-45 49 102 -7 c56 -4 112 -9 125 -11z m-263 -62
c18 -21 76 -85 130 -143 54 -58 110 -118 125 -135 16 -16 65 -70 109 -119 45
-49 98 -106 117 -126 19 -21 76 -82 125 -136 50 -54 111 -120 137 -148 26 -28
48 -54 48 -57 0 -3 -39 -22 -87 -41 -49 -20 -262 -108 -475 -197 l-387 -161
-398 164 c-219 90 -398 169 -398 174 0 8 100 118 285 312 19 20 94 99 165 175
72 76 150 159 175 185 25 26 96 102 159 169 63 66 120 121 127 121 6 0 26 -17
43 -37z m1412 -276 c292 -148 533 -312 746 -509 l52 -48 -640 0 c-351 0 -639
2 -639 4 0 5 71 154 232 489 39 81 74 147 78 147 4 0 81 -37 171 -83z m-2778
-108 c55 -96 133 -235 175 -309 41 -74 84 -147 94 -162 21 -30 16 -36 -27 -33
-16 1 -113 6 -215 9 -102 4 -225 9 -275 11 -49 2 -151 7 -225 9 -541 22 -581
24 -586 29 -3 2 26 31 63 64 145 127 327 260 490 359 123 74 383 205 398 201
6 -2 54 -82 108 -178z m-758 -544 c66 -3 192 -8 280 -11 88 -3 198 -7 245 -9
90 -4 406 -17 477 -19 23 -1 44 -4 48 -7 3 -4 -68 -186 -159 -405 l-164 -399
-64 -26 c-34 -15 -74 -32 -88 -38 -30 -12 -412 -170 -525 -216 -44 -18 -135
-56 -202 -83 -118 -49 -123 -50 -124 -29 0 12 -2 49 -4 82 -2 33 -6 110 -9
170 -3 61 -8 162 -11 225 -3 63 -7 149 -10 190 -2 41 -7 138 -11 215 -4 77 -8
158 -9 180 -3 46 -7 164 -6 182 1 12 34 12 336 -2z m4376 -42 c2 -276 0 -1266
-4 -1269 -2 -3 -215 82 -473 188 l-468 193 -188 445 c-103 245 -192 457 -197
473 l-10 27 670 0 669 0 1 -57z m-4787 -133 c3 -85 8 -182 11 -215 2 -33 7
-118 10 -190 4 -71 8 -159 10 -195 2 -36 7 -123 10 -195 3 -71 8 -165 11 -208
5 -78 5 -79 -18 -71 -13 3 -93 29 -178 56 -85 27 -243 78 -351 112 l-196 62
10 24 c21 51 120 247 154 305 64 108 201 308 278 405 78 98 235 273 240 268 2
-2 6 -73 9 -158z m3394 113 c42 -98 177 -424 244 -588 38 -93 75 -183 83 -200
7 -16 12 -31 10 -33 -2 -2 -90 32 -197 76 -106 44 -380 158 -608 252 -228 94
-419 175 -423 180 -5 4 2 10 15 14 13 3 205 82 428 175 223 93 410 170 416
170 6 1 21 -20 32 -46z m1535 -20 c60 -66 165 -189 207 -243 19 -25 38 -49 43
-55 46 -57 170 -246 227 -347 52 -89 169 -332 164 -338 -3 -3 -160 -57 -350
-121 -284 -95 -345 -113 -348 -100 -2 9 -3 187 -1 396 2 209 4 487 4 618 1
130 3 237 6 237 2 0 24 -21 48 -47z m-3220 -59 c89 -36 176 -72 192 -79 17 -7
86 -36 155 -63 69 -28 147 -60 175 -72 l50 -21 -75 -30 c-41 -17 -88 -36 -105
-44 -132 -58 -857 -356 -860 -353 -3 3 298 727 303 728 2 0 76 -30 165 -66z
m1112 -459 c220 -92 414 -173 430 -180 50 -21 313 -131 420 -175 55 -22 105
-46 112 -53 6 -7 97 -221 202 -477 106 -256 196 -474 201 -485 16 -33 157
-378 164 -400 5 -18 -61 -198 -114 -310 -5 -11 -106 -256 -225 -545 -120 -289
-222 -530 -228 -537 -7 -6 -52 -27 -102 -47 -49 -20 -99 -41 -110 -46 -11 -5
-184 -75 -385 -156 -201 -81 -461 -186 -578 -234 l-213 -87 -312 129 c-172 70
-321 132 -332 138 -11 5 -72 30 -135 56 -63 25 -128 52 -145 59 -16 7 -84 35
-149 61 -113 47 -120 51 -137 89 -9 22 -54 130 -99 240 -45 110 -88 214 -95
230 -16 38 -46 110 -239 577 l-155 376 150 364 c83 199 213 514 289 699 77
185 145 349 151 366 10 29 33 40 452 214 712 294 751 310 767 305 8 -2 195
-79 415 -171z m-1936 -846 c-110 -266 -207 -497 -214 -514 -7 -16 -36 -85 -64
-152 -67 -163 -64 -160 -80 -126 -80 174 -370 888 -364 894 4 4 199 87 433
183 234 97 439 183 455 190 17 7 31 13 33 11 1 -1 -88 -220 -199 -486z m3421
242 c217 -89 409 -168 426 -175 l32 -15 -177 -430 c-97 -237 -178 -431 -181
-431 -3 0 -60 132 -127 293 -67 160 -178 425 -246 588 -132 313 -144 345 -131
336 5 -3 187 -78 404 -166z m-4689 3 c184 -58 349 -110 367 -115 17 -6 32 -12
32 -15 0 -4 -168 -169 -316 -310 -43 -41 -242 -233 -612 -591 -62 -61 -85 -76
-77 -50 2 6 6 55 9 107 21 322 92 658 202 960 20 52 37 101 39 108 3 6 8 12
13 12 5 0 159 -48 343 -106z m6039 -79 c109 -317 169 -621 185 -935 l6 -105
-123 122 c-68 67 -280 277 -473 467 -299 295 -347 346 -330 352 113 44 682
230 687 225 3 -3 25 -60 48 -126z m-5486 -298 c43 -105 87 -210 96 -232 10
-22 36 -85 58 -140 23 -55 70 -172 107 -260 68 -166 71 -180 40 -243 -7 -15
-46 -106 -85 -202 -40 -96 -78 -188 -85 -205 -8 -16 -57 -136 -110 -265 -53
-129 -99 -238 -103 -242 -4 -4 -50 35 -102 85 -170 163 -474 454 -510 487 -19
18 -112 107 -207 197 -95 91 -181 173 -193 183 -28 24 -25 37 13 72 17 17 100
96 183 177 616 599 805 781 813 781 3 0 42 -87 85 -193z m5429 -610 l217 -213
-49 -45 c-40 -37 -174 -161 -316 -294 -12 -11 -52 -49 -91 -85 -38 -36 -131
-123 -207 -194 -75 -71 -147 -137 -160 -148 -12 -11 -52 -48 -88 -83 l-66 -65
-12 28 c-21 45 -261 622 -261 627 0 3 -11 28 -24 57 -14 29 -41 92 -60 140
l-35 87 100 243 c93 225 243 587 276 668 l14 34 272 -271 c150 -150 370 -368
490 -486z m-6487 -369 c48 -46 103 -99 124 -118 20 -19 104 -98 185 -175 82
-77 167 -157 189 -178 23 -21 102 -96 176 -166 74 -71 157 -149 185 -174 27
-26 47 -48 45 -51 -3 -2 -153 -63 -335 -136 -181 -72 -344 -138 -362 -146 -17
-7 -36 -14 -41 -14 -17 0 -86 187 -146 395 -39 137 -76 322 -92 460 -3 33 -8
69 -10 80 -8 39 -17 305 -11 305 4 0 46 -37 93 -82z m5487 -396 l165 -394 -36
-15 c-20 -8 -214 -89 -431 -180 -216 -90 -395 -162 -397 -160 -3 3 80 208 377
932 39 94 82 199 96 234 l26 64 18 -44 c9 -24 92 -221 182 -437z m-4028 398
c14 -36 32 -78 40 -95 7 -16 37 -86 65 -155 29 -69 58 -138 65 -155 8 -16 48
-113 90 -215 42 -102 83 -198 90 -215 7 -16 30 -70 50 -120 37 -89 51 -124 79
-188 8 -18 20 -45 25 -60 10 -26 9 -28 -10 -22 -77 25 -899 369 -899 377 0 6
31 85 69 177 37 91 121 295 186 453 65 158 120 287 121 285 1 -1 14 -31 29
-67z m5270 -32 c-3 -57 -8 -121 -10 -143 -6 -58 -17 -147 -20 -165 -1 -8 -8
-49 -15 -90 -7 -41 -19 -104 -27 -140 -8 -36 -17 -75 -19 -87 -15 -80 -146
-467 -164 -487 -5 -5 -74 25 -162 69 -369 188 -504 258 -511 265 -4 4 42 54
104 111 61 57 123 115 138 129 69 64 277 258 306 285 18 17 88 82 155 145 166
155 225 209 228 210 1 0 0 -46 -3 -102z m-1050 -900 c2 -29 6 -116 10 -193 3
-77 7 -174 10 -215 2 -41 6 -138 10 -215 3 -77 8 -171 10 -210 2 -38 7 -137
10 -220 4 -82 8 -167 9 -187 1 -21 0 -38 -3 -39 -35 -5 -1384 -2 -1387 3 -4 6
245 613 325 793 10 22 28 66 41 97 l23 57 366 152 c201 83 411 170 466 193 55
24 102 42 103 40 2 -1 5 -26 7 -56z m755 -302 c0 -18 -131 -268 -201 -384 -59
-97 -228 -345 -248 -362 -3 -3 -39 -44 -79 -92 -40 -49 -77 -88 -81 -88 -5 0
-10 35 -11 78 -3 98 -4 125 -25 557 -3 44 -7 127 -10 185 -9 197 -16 325 -20
393 l-5 68 340 -173 c187 -95 340 -177 340 -182z m-4924 106 c265 -109 490
-204 502 -212 13 -10 77 -154 182 -408 89 -217 160 -396 157 -398 -2 -2 -35
-6 -73 -9 -38 -3 -105 -7 -149 -10 -100 -7 -185 -13 -295 -20 -47 -3 -114 -7
-150 -10 -36 -3 -96 -7 -135 -10 -38 -2 -108 -7 -155 -10 -143 -10 -190 -13
-310 -20 -63 -4 -119 -8 -125 -8 -13 -3 -10 131 10 418 2 33 7 103 10 155 3
52 8 131 10 175 9 139 14 227 21 350 4 66 8 131 10 145 1 14 2 35 3 48 1 12 2
22 4 22 1 0 219 -89 483 -198z m-571 106 c-8 -131 -15 -242 -20 -318 -7 -101
-13 -194 -20 -325 -4 -60 -8 -130 -10 -155 -2 -25 -7 -99 -11 -165 -4 -66 -8
-136 -9 -155 -2 -19 -4 -46 -4 -59 -1 -25 -1 -25 -37 10 -88 84 -278 323 -371
468 -49 75 -183 307 -183 316 0 2 -17 40 -39 86 l-39 83 87 33 c47 18 95 37
106 42 11 5 70 28 130 51 61 23 119 46 130 51 53 24 271 108 282 108 9 1 12
-18 8 -71z m3688 -295 c-3 -10 -14 -36 -24 -58 -9 -22 -88 -211 -174 -420 -86
-209 -158 -381 -160 -383 -3 -4 -856 348 -867 358 -7 5 147 71 672 287 113 47
219 91 235 98 17 7 82 34 145 60 63 25 129 53 145 60 17 8 31 15 32 15 1 0 0
-8 -4 -17z m-1983 -282 c272 -111 504 -205 514 -209 15 -6 -68 -45 -346 -160
-201 -84 -370 -152 -374 -152 -5 0 -72 150 -148 333 -76 182 -145 345 -152
361 -17 36 -17 40 -1 33 6 -3 235 -96 507 -206z m998 -412 c491 -200 585 -239
589 -242 1 -2 -11 -19 -29 -38 -43 -48 -193 -213 -254 -279 -27 -30 -70 -77
-95 -104 -24 -27 -69 -77 -100 -110 -61 -66 -65 -70 -184 -202 -44 -48 -90
-99 -103 -113 -87 -95 -115 -122 -122 -114 -4 4 -105 123 -226 263 -120 140
-273 318 -339 394 -306 355 -306 355 -287 365 9 5 134 57 277 115 143 59 271
112 285 118 14 5 66 27 115 48 50 21 98 38 108 39 11 1 175 -63 365 -140z
m-1485 -551 c-102 -183 -195 -349 -207 -369 l-21 -36 -91 42 c-115 54 -303
161 -419 238 -74 49 -296 216 -315 237 -3 3 -33 31 -67 62 -34 32 -58 60 -55
62 4 2 59 7 122 11 63 3 133 8 155 10 22 2 83 6 135 10 52 3 127 8 165 11 97
7 175 12 280 19 50 3 113 8 140 10 28 2 97 7 155 10 58 4 106 8 107 9 1 0 24
2 52 4 l50 3 -186 -333z m613 -105 c186 -218 346 -403 355 -412 8 -9 37 -43
65 -76 27 -33 52 -62 57 -63 4 -2 12 -13 18 -24 11 -21 10 -21 -112 -14 -231
12 -381 33 -615 85 -163 37 -491 144 -517 170 -4 4 9 37 29 72 20 35 50 89 66
119 17 30 72 127 121 215 150 266 157 279 169 303 6 12 14 22 18 22 3 0 159
-178 346 -397z m2916 371 c-14 -22 -190 -177 -287 -253 -88 -69 -307 -221
-319 -221 -2 0 -33 -18 -69 -39 -60 -37 -309 -162 -313 -158 -1 1 -61 119
-134 262 -73 143 -147 287 -165 320 -18 33 -35 69 -39 80 -6 20 -1 20 663 20
476 0 667 -3 663 -11z m-1344 -134 c27 -52 104 -202 171 -332 l121 -238 -38
-16 c-127 -54 -481 -159 -602 -179 -19 -3 -42 -8 -50 -10 -8 -2 -33 -7 -55
-10 -23 -3 -50 -7 -61 -9 -11 -2 -47 -7 -79 -11 -33 -4 -69 -8 -80 -10 -12 -2
-70 -6 -130 -10 l-110 -7 20 23 c33 39 37 43 121 135 44 49 132 145 194 214
62 69 136 150 164 181 28 30 87 95 131 144 44 49 107 118 140 153 33 35 64 71
69 79 11 20 17 13 74 -97z"/>
</g>
</svg>
